<svg xmlns="http://www.w3.org/2000/svg" width="19.008" height="18.962" viewBox="0 0 19.008 18.962">
  <path id="pin" d="M18.637,6.763,12.225.352a1.164,1.164,0,0,0-1.662,0,1.148,1.148,0,0,0,0,1.662l.712.712L3.2,7.124,2.014,5.937a1.148,1.148,0,0,0-1.662,0,1.164,1.164,0,0,0,0,1.662L2.137,9.376h0l2.85,2.85-4.275,4.4,1.662,1.662,4.389-4.4,4.75,4.75a1.237,1.237,0,0,0,1.662,0,1.148,1.148,0,0,0,0-1.662l-1.187-1.187,4.4-7.951.712.712a1.118,1.118,0,0,0,1.662,0A1.45,1.45,0,0,0,18.637,6.763Zm-8.549,7.248L4.987,8.9l7.951-4.389,1.548,1.539Z" transform="translate(-0.002 -0.003)" fill="#fff"/>
</svg>
